Coordinates
version=1
nRows=5
nColumns=40
inDegrees=yes

Units are S.I. units (second, meters, Newtons, ...)
If the header above contains a line with 'inDegrees', this indicates whether rotational values are in degrees (yes) or radians (no).

endheader
time	pelvis_tilt	pelvis_list	pelvis_rotation	pelvis_tx	pelvis_ty	pelvis_tz	hip_flexion_r	hip_adduction_r	hip_rotation_r	knee_angle_r	knee_angle_r_beta	ankle_angle_r	subtalar_angle_r	mtp_angle_r	hip_flexion_l	hip_adduction_l	hip_rotation_l	knee_angle_l	knee_angle_l_beta	ankle_angle_l	subtalar_angle_l	mtp_angle_l	lumbar_extension	lumbar_bending	lumbar_rotation	arm_flex_r	arm_add_r	arm_rot_r	elbow_flex_r	pro_sup_r	wrist_flex_r	wrist_dev_r	arm_flex_l	arm_add_l	arm_rot_l	elbow_flex_l	pro_sup_l	wrist_flex_l	wrist_dev_l
     15.60000000	     -5.90285366	     -2.88453921	      1.45668231	     -0.23252881	      1.16786221	     -0.01445193	     52.99101369	     -5.00880635	     -1.82632278	    100.22949692	      1.74933473	     20.43920698	     -1.92338472	      0.00000000	     56.59932807	     -9.32319887	      2.10028876	     63.54510646	      1.10907133	      4.88928264	     -5.65665221	      0.00000000	    -64.30923495	      2.42881004	      2.43504301	     88.84457820	    -14.01301759	     71.40963554	     27.95032283	     51.07453704	      0.00000000	      0.00000000	     82.99068073	    -11.96228487	     33.83875524	     34.02710914	     60.10573796	      0.00000000	      0.00000000
     15.60833333	     -5.86800178	     -3.10628307	      1.23946362	     -0.23209277	      1.16776695	     -0.01446744	     54.01651403	     -4.82618124	     -1.73792967	    101.72608070	      1.77545504	     20.86505629	     -1.79613625	      0.00000000	     55.23582052	     -9.57394176	      2.06504026	     61.85479412	      1.07956982	      4.36871116	     -5.72471436	      0.00000000	    -64.29251973	      2.61172054	      2.68129312	     88.90801934	    -13.75727770	     71.68674965	     27.77970329	     51.00170828	      0.00000000	      0.00000000	     82.77357009	    -12.20551446	     33.93891767	     34.12097142	     59.64331347	      0.00000000	      0.00000000
     15.61666667	     -5.85023542	     -3.48526274	      1.00586188	     -0.23165547	      1.16747290	     -0.01435174	     55.07714755	     -4.64570297	     -1.87436442	    103.24351510	      1.80193927	     21.24397717	     -1.54920896	      0.00000000	     53.97480238	     -9.98537223	      2.18077910	     60.32502273	      1.05287027	      3.66191587	     -5.81819573	      0.00000000	    -64.23410422	      2.84275578	      3.05407250	     88.92482759	    -13.53995064	     72.13979230	     27.62211396	     50.67852096	      0.00000000	      0.00000000	     82.53219095	    -12.41763130	     33.79720728	     34.12200134	     60.01583001	      0.00000000	      0.00000000
     15.62500000	     -5.90603235	     -3.93662887	      0.89640213	     -0.23132818	      1.16718691	     -0.01428657	     56.15097642	     -4.52365606	     -2.21462433	    104.57596835	      1.82519497	     21.14710125	     -1.33602146	      0.00000000	     52.78076995	    -10.33176228	      2.39010968	     58.76051353	      1.02556443	      3.46113896	     -5.90977523	      0.00000000	    -64.13032408	      3.21987571	      3.48300554	     88.92869226	    -13.39029311	     72.30640320	     27.57490124	     50.63813578	      0.00000000	      0.00000000	     82.30590758	    -12.58889290	     33.76126351	     34.11686075	     60.07120785	      0.00000000	      0.00000000
     15.63333333	     -6.06223620	     -3.79450356	      0.67075510	     -0.23119485	      1.16665360	     -0.01456588	     57.58478533	     -4.87804522	     -1.91433523	    106.08809675	      1.85158659	     21.30709722	     -0.59748330	      0.00000000	     51.54961742	    -10.26596062	      2.11755693	     57.16432564	      0.99770570	      2.68964959	     -6.26941008	      0.00000000	    -63.89543975	      3.20982896	      3.37898485	     89.03081164	    -13.01309515	     73.26967871	     26.94864519	     50.55609211	      0.00000000	      0.00000000	     82.05522113	    -12.80963458	     33.56446544	     34.17385889	     60.27420618	      0.00000000	      0.00000000
